<?xml version="1.0" encoding="utf-8"?>
<!-- Generator: Adobe Illustrator 22.1.0, SVG Export Plug-In . SVG Version: 6.00 Build 0)  -->
<svg version="1.1" id="Layer_1" xmlns="http://www.w3.org/2000/svg" xmlns:xlink="http://www.w3.org/1999/xlink" x="0px" y="0px"
	 viewBox="0 0 1000 1000" style="enable-background:new 0 0 1000 1000;" xml:space="preserve">
<style type="text/css">
	.st0{fill:#FFFFFF;}
	.st1{fill:none;stroke:#FFFFFF;stroke-width:12;stroke-miterlimit:10;}
	.st2{fill:none;stroke:#FFFFFF;stroke-width:8;stroke-miterlimit:10;}
	.st3{fill:none;stroke:#FFFFFF;stroke-width:18;stroke-miterlimit:10;}
	.st4{fill:none;stroke:#FFFFFF;stroke-width:10;stroke-miterlimit:10;}
</style>
<g>
	<path class="st0" d="M706.4,543.1c2,0.4,4.2,0.8,6.6,1.2c2.4,0.4,4.7,0.9,6.8,1.4c2.3,0.5,5.3,1.4,9.2,2.6l19.2,6.2
		c5.6,1.6,11.5,3,17.8,4.2c6.1,1.2,12.2,2.1,18.2,2.8c6.1,0.7,12.1,1.1,17.8,1.4c5.9,0.1,12,0.2,18.4,0.2c6.4,0.1,10.6,0.2,12.6,0.2
		h9c1.5,0.1,2.4,0.6,2.8,1.4c0.1,0.1,0.2,0.3,0.2,0.4c0,0.7-0.7,1.3-2,2l-5.2,2.6c-1.5,0.7-4.1,1.7-8,3.2l-14.2,5.4
		c-3.3,1.2-6.7,2.3-10,3.2c-3.2,1.1-5.7,1.6-7.4,1.6c-2.7,0-5.9-0.7-9.8-2l-14.4-5.8l-21.6-8.8l-19.8-8c-4.7-1.7-8.5-3.1-11.4-4
		c-2.7-0.9-5.5-1.7-8.6-2.2c-2.9-0.5-5.9-0.8-9-0.8c-3.9,0.1-7.5,0.5-11,1c-3.6,0.5-6.3,1.1-8,1.6c-1.6,0.4-3.2,1.1-4.8,2
		c-1.6,0.7-2.7,1-3.2,1h-0.4c-0.7,0-1.4-0.3-2.2-0.8c-1.1-0.5-2.3-1.5-3.6-2.8c-1.6-1.2-2.6-2.1-3-2.8c-0.5-0.8-1.1-1.7-1.6-2.8
		c-0.3-0.7-0.4-1.3-0.4-1.8v-0.4c0.3-0.7,0.8-1.2,1.6-1.6c0.4,0,1.1,0.1,2,0.2c1.1,0.3,2.7,0.5,5,0.6c2.3,0.1,3.7,0.2,4.4,0.2h1.2
		c1.3,0,3.2-0.1,5.6-0.4c3.5-0.4,6.2-0.7,8.2-0.8c2.1-0.3,3.5-0.5,4-0.6h3.4l0.4-5.8c0-1.9-0.2-4.1-0.6-6.8c-0.5-3.1-1.2-5.3-2-6.6
		c-0.8-1.2-2.1-2.9-3.8-5.2c-1.6-2.3-2.9-3.7-4-4.4c-1.1-1.1-1.7-1.8-1.8-2.2c-0.1-0.4-0.2-0.9-0.2-1.4c0-0.5,0.3-1.4,0.8-2.6
		l5.2-11.8c0.9-2.1,1.5-3.5,1.6-4c0.1-0.3,0.2-0.5,0.2-0.8c0-0.3-0.1-0.5-0.2-0.6c-0.1-0.3-0.6-0.4-1.4-0.4h-0.8
		c-1.7,0.1-3.9,0.7-6.4,1.6c-2.4,0.9-4.3,1.5-5.8,1.8c-1.5,0.3-2.9,0.4-4.4,0.4c-1.5-0.1-2.9-0.5-4.4-1.2c-1.6-0.5-2.7-1.1-3.2-1.8
		c-0.5-0.5-0.8-1-0.8-1.4c0-0.3,0.1-0.5,0.4-0.6c0.4-0.3,1.4-0.5,3-0.8l3.6-0.8c2.3-0.3,4.7-0.9,7.2-1.8l8.2-3.4
		c2.9-1.2,5.1-2.3,6.6-3.2c1.5-0.8,2.5-1.3,3-1.4c0.9,0,1.9,0.3,2.8,0.8c1.1,0.5,2.6,1.5,4.6,3c1.9,1.3,3.3,2.6,4.4,3.8
		c0.8,0.9,1.2,1.8,1.2,2.6v0.4c-0.1,0.7-0.8,1.5-2,2.4l-3.2,2.8c-1.2,1.1-2.3,2.2-3.4,3.4l-7.8,8.8c-1.6,1.7-2.6,2.9-3,3.6
		c-0.4,0.5-0.6,1.1-0.6,1.6c0,0.5,1,1.3,3,2.2c2,0.7,3.8,1.7,5.4,3.2c1.9,1.6,3.5,3.5,4.8,5.6c1.2,1.9,1.9,4.2,2,7v0.8
		c0,2.5-0.5,5.3-1.4,8.2L706.4,543.1z M682.6,440.9c-0.5-0.7-0.8-1.1-0.8-1.4c0.1-0.3,0.4-0.5,0.8-0.8c0.3-0.3,0.7-0.4,1.2-0.4
		l3.4,0.8c1.6,0.3,3.4,0.6,5.4,1c1.9,0.4,3.7,0.9,5.6,1.4c1.7,0.7,3.4,1.4,5,2.2c1.7,0.8,3.1,1.7,4,2.8c1.1,0.9,1.7,2,2,3.2
		c0.4,1.3,0.6,2.6,0.6,3.8c-0.1,1.1-0.3,2.3-0.6,3.8c-0.5,1.6-1.3,2.9-2.2,3.8c-0.9,0.9-1.9,1.5-2.8,1.6h-0.4c-1.1,0-2.4-0.7-4-2.2
		c-1.6-1.1-3.2-2.5-4.8-4.4l-5-6c-2.8-3.1-4.5-4.9-5-5.6L682.6,440.9z M772.6,469.1l-4.2-3.6c-1.5-1.2-3.1-2.9-5-5l-4.6-4.8
		c-1.3-1.5-2.3-2.5-2.8-3.2c-0.3-0.7-0.4-1.1-0.4-1.4c0.1-0.3,0.5-0.5,1.2-0.8c0.3-0.1,0.6-0.2,1-0.2c0.5,0,1,0.1,1.4,0.2l4,0.8
		c2.3,0.5,4.1,1.1,5.6,1.6l4.2,1.4l11.2-14.4c0.9-1.2,1.8-2.4,2.6-3.6c0.8-1.1,1.2-1.9,1.2-2.6v-0.2c0-0.5-0.2-0.9-0.6-1.2
		c-0.4-0.1-1.1-0.2-2.2-0.2l-3.8,0.4l-18.4,4.4l-7,2c-3.5,0.8-5.8,1.5-7,2c-1.3,0.7-2.2,1-2.6,1h-1.8c-1.1-0.3-2.1-0.8-3.2-1.6
		c-1.3-0.7-2.5-1.4-3.4-2.2c-0.9-0.7-1.7-1.3-2.4-2c-0.4-0.5-0.6-1-0.6-1.4v-0.2c0.1-0.5,0.5-0.8,1.2-0.8l3.8-0.2
		c2.3-0.1,5.5-0.5,9.8-1c4.1-0.5,8.4-1.3,12.8-2.2c4.3-0.8,8.2-1.7,11.8-2.8l8.2-2.6c2-0.7,3.7-1.3,5-1.8c1.3-0.4,2.4-0.6,3.2-0.6
		s1.8,0.2,3,0.6c1.3,0.5,3.1,1.3,5.2,2.4l5,2.6c1.2,0.8,2.4,1.7,3.6,2.6c1.1,0.7,1.7,1.4,2,2.2c0.4,0.7,0.6,1.2,0.6,1.6
		c-0.3,0.7-1,1.3-2.2,2c-1.3,0.8-3.1,1.7-5.2,2.8c-2,0.9-3.7,1.8-5,2.6c-1.3,0.8-3.7,2.5-7,5.2l-13.4,9.2c0.8,1.1,1.5,2.1,2,3
		c0.5,0.9,0.9,1.9,1,3v1.2c0,0.8-0.1,1.6-0.2,2.4l-0.2,2l6.4-1.2c2.8-0.4,5.3-0.9,7.4-1.6c2.3-0.4,4.4-1,6.4-1.8c1.7-0.7,3-1,3.8-1
		c1.1,0,2.7,0.6,4.8,1.8l4.4,2.4c0.9,0.5,1.9,1.3,3,2.2c0.9,0.9,1.4,1.8,1.4,2.6c0,0.8-0.2,1.7-0.6,2.6c-0.8,1.9-1.4,3.3-1.8,4.4
		c-0.4,1.2-0.7,2.9-1,5.2c-0.3,2.3-0.5,5.9-0.6,10.8c0,4.8,0.1,10,0.2,15.6c0,5.7,0.1,10.9,0.2,15.4c0.1,4.5,0.2,7.7,0.2,9.6
		c-0.3,2.4-0.7,4.7-1.2,7c-0.5,2.4-1.2,4.5-2,6.2c-0.8,1.6-1.8,3.1-3,4.6c-1.1,1.5-2.2,2.5-3.4,3c-0.5,0.3-1.1,0.4-1.6,0.4
		c-0.5,0-1-0.1-1.4-0.4c-0.5-0.1-1.1-1.1-1.8-2.8c-0.8-1.6-2.1-3.4-3.8-5.4l-4.4-5.2c-1.5-1.6-2.7-2.7-3.8-3.4l-1.6-1.4
		c-0.4-0.3-0.6-0.5-0.6-0.8c0-0.3,0.1-0.5,0.2-0.6c0.1-0.4,0.3-0.6,0.6-0.6c0.1,0,0.3,0.1,0.4,0.2l2.8,0.8c0.5,0.3,1.9,0.7,4,1.2
		c2.3,0.4,3.9,0.6,5,0.6h0.6c0.8,0,1.4-0.2,1.8-0.6c0.4-0.4,0.9-1.3,1.4-2.8c0.3-1.3,0.5-3,0.8-5l0.6-16.4l-26.2,3.6v10.2
		c0,3.6-0.1,6.6-0.2,9c-0.3,2.4-0.5,4.4-0.8,6l-1,4.8c-0.5,1.3-1.1,2.5-1.6,3.6c-0.5,0.9-1.1,1.5-1.6,1.6c-0.5,0-1.2-0.7-2-2.2
		c-0.5-1.1-1-2.6-1.4-4.6c-0.4-2.4-0.7-4.3-1-5.8c-0.1-1.3-0.2-3-0.2-5l-0.2-15.8c-3.1,0.3-5.8,0.6-8.2,1c-2.3,0.4-4.3,0.6-6.2,0.6
		c-1.7,0-3-0.2-3.8-0.6l-3.6-1.2l-0.6,15c-0.1,2.9-0.3,4.9-0.6,6c-0.3,0.9-0.5,2-0.8,3.2c-0.3,1.2-0.6,2.2-1,3
		c-0.3,0.8-0.7,1.3-1.2,1.6h-0.2c-0.5,0-1.1-0.3-1.8-0.8c-0.5-0.3-1.1-0.9-1.8-2c-0.7-0.9-1.3-2.1-2-3.6c-0.8-1.3-1.3-2.7-1.6-4.2
		c-0.4-0.9-0.6-1.8-0.6-2.6c0-0.5,0.1-1,0.2-1.4c0-0.5,0.2-1.7,0.6-3.4c0.7-2,1.2-4.4,1.6-7.2c0.4-2.8,0.7-6.1,0.8-9.8
		c0.1-3.9,0.3-8.2,0.4-13c0-4.8-0.1-9.1-0.4-13c-0.1-2.9-0.3-5.2-0.6-6.8c-0.4-1.7-0.9-3.1-1.4-4.2c-0.4-1.2-0.6-2.1-0.6-2.6
		c0-0.7,0.2-1.3,0.6-1.8c0.3-0.3,0.7-0.4,1.4-0.4c0.4,0,0.9,0.1,1.6,0.2l6,2L772.6,469.1z M745.8,514.5l21.8-2.8v-13.6
		c-2,0.4-3.7,0.7-5.2,0.8c-1.5,0.1-3.2,0.3-5.2,0.6H752c-1.2,0-2.3-0.3-3.4-0.8l-2.4-1L745.8,514.5z M746.2,494.1l21.8-2.8v-17
		c-4.8,0.7-7.5,1.1-8.2,1.2l-13.2,2.2L746.2,494.1z M803.6,489.1v-11c0-0.9-0.1-2.1-0.4-3.6c-0.3-1.3-0.5-2.2-0.8-2.6
		c-0.4-0.3-1.1-0.5-2.2-0.6h-1.4c-0.9,0-2.2,0.1-3.8,0.2l-17,1.4l-0.2,16.8l8.2-1l6-1.4c1.5-0.1,3-0.2,4.6-0.2
		c1.7,0.3,3.1,0.6,4.2,1L803.6,489.1z M777.8,509.7c5.3-0.9,9.3-1.7,12-2.2c2.5-0.4,4.4-0.6,5.6-0.6c1.9,0,3.6,0.3,5.2,0.8l3.4,1.2
		v-15.8l-26.2,4V509.7z"/>
</g>
<g>
	<path class="st0" d="M245.5,424c-1.6-1.5-2.8-2.7-3.6-3.6c-0.7-0.8-1.5-2.1-2.4-3.8l-3.4-6.8c-1.1-1.6-1.6-2.9-1.6-4
		c0-0.9,0.1-1.6,0.4-2c0.3-0.1,0.7-0.2,1.4-0.2h1c2.5,0.3,5.1,1.1,7.8,2.4c2.8,1.3,4.9,2.8,6.2,4.4c1.6,1.7,2.4,3.5,2.4,5.4
		c0.1,0.5,0.2,1,0.2,1.4c0,0.9-0.2,1.7-0.6,2.4l-1.2,3.6l36-3.6c2.3-0.3,5.6-0.8,10-1.6c3.9-0.5,6.6-0.8,8.2-0.8h0.8
		c1.2,0.1,2.5,0.6,4,1.4c1.3,0.7,3.1,2,5.4,4l5.6,5.4c1.7,1.7,2.6,3.1,2.6,4.2c0,1.1-0.1,1.9-0.4,2.4c-0.7,0.7-1.8,1.2-3.4,1.6
		l-9,1.8c-2.1,0.4-4.2,0.9-6.2,1.6l-8,2.2c-0.8,0.3-1.5,0.4-2,0.4c-0.3,0-0.5-0.1-0.6-0.2v-0.4c0-0.4,0.3-1.1,0.8-2l3.8-6.2
		c1.6-2.7,2.5-4.4,2.6-5.2v-0.4c0-0.7-0.2-1.3-0.6-1.8c-0.3-0.4-0.9-0.6-2-0.6c-1.1-0.1-2.2-0.2-3.4-0.2l-8.6,0.2l-27,2l-46.8,5.4
		l-11,1.4h-1.4c-0.8,0-1.4-0.1-1.8-0.2l-3-1c-0.9,2.9-1.7,5.2-2.4,6.8c-0.5,1.6-1.5,3.7-2.8,6.4c-1.5,2.8-2.7,4.6-3.8,5.4
		c-1.5,0.8-2.7,1.2-3.6,1.2c-1.1,0-2.1-0.4-3.2-1.2c-0.4-0.5-0.9-1.1-1.4-1.8c-0.3-1.1-0.5-2.3-0.8-3.6c0-1.3,0.1-2.6,0.4-3.8
		l2.2-3.4l3.6-7.2c1.3-2.1,2-3.3,2-3.6l3-9.2c0.5-0.7,1.2-1.1,2-1.4h0.2c1.1,0,1.9,1.3,2.6,3.8l1.6,5c11.5-0.3,18.1-0.5,19.8-0.6
		L245.5,424z M206.7,455.8l-4.6,0.2c-1.5,0-2.9-0.1-4.4-0.2c-1.5-0.1-3-0.7-4.6-1.8c-1.1-0.9-1.6-1.6-1.6-2v-0.2
		c0.5-0.4,1.2-0.6,2-0.6l2.8-0.4l12.8-1.6c2.5-0.4,4.9-0.9,7-1.4l6.4-1.6c2-0.8,3.5-1.2,4.6-1.2c0.4,0.1,1.7,0.5,3.8,1.2
		c2.1,0.5,3.4,1.3,3.8,2.2c0.4,0.9,0.6,1.5,0.6,1.8c-0.3,0.4-0.8,0.7-1.6,1c-0.9,0.3-2.3,0.5-4.2,0.8l-12.6,2
		c0.8,0.8,1.3,1.5,1.6,2.2c0.1,0.3,0.2,0.7,0.2,1.2c0,0.4-0.1,0.9-0.2,1.4l-0.8,2.6l-0.4,4.8c2.1-0.5,3.7-1.1,4.8-1.6
		c0.8-0.3,1.5-0.5,2.2-0.6c0.7,0,2,0.3,4,1c2,0.8,3.3,1.5,3.8,2c0.3,0.4,0.4,0.9,0.4,1.4c-0.4,0.3-1,0.5-1.8,0.8l-14.2,2.8v12.6
		l14.4-3.6c1.7-0.5,3.2-0.9,4.4-1h0.8c0.8,0,1.3,0.2,1.6,0.6c0.1,0.3,0.2,0.6,0.2,1c0,0.3-0.1,0.6-0.2,1c-0.3,0.7-0.8,1.1-1.6,1.2
		l-26.2,8.4c-2.8,0.8-5.1,1.7-7,2.8c-1.9,0.8-3.9,1.8-6.2,3c-2.4,1.2-4,1.8-4.8,1.8c-1.2,0-2.1-0.3-2.6-0.8
		c-1.1-0.5-2.5-1.6-4.4-3.2c-2-1.6-3.1-2.8-3.2-3.6c-0.1-0.5-0.2-0.9-0.2-1.2c0-0.4,0.1-0.7,0.2-0.8c0.3-0.4,0.8-0.7,1.6-0.8h0.6
		c0.8,0,2.1,0.1,3.8,0.4c1.5,0.3,2.7,0.4,3.8,0.4h0.8c1.5-0.1,3.4-0.5,5.8-1.2l11-2.6v-13.2l-6.6,1.2h-4.4c-2.4-0.1-3.9-0.7-4.6-1.6
		c-0.5-0.7-0.8-1.1-0.8-1.4v-0.2c0.3-0.4,0.9-0.7,2-1l3.8-0.8l9.8-1.8v-4.4L206.7,455.8z M226.3,556.8h-5c-0.3,1.7-0.7,2.9-1.2,3.4
		c-0.5,0.3-0.9,0.4-1.2,0.4h-0.4c-0.3,0-0.7-0.1-1.2-0.4c-0.3-0.3-0.9-1.1-2-2.4c-0.7-1.5-1.3-3.1-1.8-4.8c-0.5-1.7-0.8-3.1-0.8-4
		c0-0.7,0.4-2.2,1.2-4.6c0.7-2.3,1.1-4.3,1.4-6.2c0.3-1.9,0.4-4.3,0.4-7.2l0.4-14.4c0.1-0.9,0.2-1.8,0.2-2.6c0-2.4-0.3-4.5-1-6.4
		l-2.2-5.4c-0.1-0.7-0.2-1.2-0.2-1.6c0-0.3,0.1-0.5,0.2-0.6c0.3-0.5,0.7-0.9,1.4-1h0.2c0.8,0,2.3,0.4,4.6,1.2l3.4,1l26.6-3.4
		l9.4-1.6c4.3-0.5,7.5-1.3,9.8-2.2c2.4-0.9,3.8-1.4,4.2-1.4c0.7,0,1.9,0.3,3.6,1c1.6,0.7,3.3,1.5,5,2.4c1.7,0.9,3.2,2,4.4,3.2
		c1.3,1.1,2,1.9,2,2.4c0,0.3-0.1,0.7-0.4,1.2l-2,2.8c-0.3,0.5-0.5,1.4-0.8,2.6c-0.3,0.9-0.4,2.1-0.4,3.4c-0.3,1.3-0.4,2.9-0.4,4.6
		l-0.4,20l0.8,10.8c0,1.6-0.3,3.6-1,6c-0.7,2.5-1.4,4.5-2.2,5.8c-0.8,1.3-1.6,2-2.4,2h-0.2c-0.5,0-1.3-0.5-2.4-1.4
		c-0.9-0.9-1.7-2.1-2.4-3.6l-1-2.2h-13l-25.8,2.6c4.1,1.3,6.7,2.6,7.8,3.8c1.1,1.2,1.6,2.1,1.6,2.6v0.4c-0.1,0.5-0.4,1.1-0.8,1.6
		c-0.3,0.5-1.4,1.2-3.4,2c-2.1,0.7-4.9,2.2-8.2,4.6c-3.3,2.4-7.1,4.9-11.4,7.6c-4.3,2.8-7.5,4.6-9.8,5.4c-2.1,0.9-4.7,1.8-7.8,2.6
		l-2.8,1c-0.7,0.1-1.1,0.2-1.4,0.2c-0.7,0-1.1-0.1-1.2-0.4c0-0.7,0.6-1.5,1.8-2.4l3.6-2.2c1.5-1.1,3.8-2.8,7-5.2
		c3.2-2.3,5.5-4.3,7-6c1.9-1.7,4.2-4.1,7-7c2.7-3.1,4-5.1,4-6L226.3,556.8z M222.5,550.6l29.2-2.8c3.1-0.3,6.3-0.7,9.8-1.2
		c2-0.4,3.5-0.6,4.4-0.6c0.5,0,0.9,0.1,1,0.2l5.2,1.6c0.7-3.2,1-5.1,1-5.6l0.4-8.2c-0.9,0.4-1.8,0.7-2.6,0.8
		c-0.5,0.3-1.5,0.4-2.8,0.4l-45,3.8L222.5,550.6z M223.5,534.2l36-4.4l5.8-0.8h1.6c1.1,0,2.3,0.1,3.6,0.2l3,0.4v-13.2l-1.8,0.8
		l-48.2,5.2V534.2z M223.9,517.4l30.6-4.4c6.7-0.8,10.4-1.2,11.2-1.2l7,0.2l-0.2-4c-0.1-1.6-0.3-2.7-0.4-3.4
		c-0.1-0.7-0.5-1.4-1.2-2.2c-0.8-0.5-2.4-0.9-4.8-1.2h-2c-1.5,0-3,0.1-4.6,0.2l-35.2,5L223.9,517.4z M265.3,459.4v-2.6
		c0-0.8-0.3-2.2-1-4.2l-1.2-2.8h-4l-5.4-0.6c-1.3,1.3-2.3,2.4-2.8,3.2l-3.4,2.8l-2.4,2.2c-0.8,0.7-1.4,1-1.8,1
		c-0.1,0-0.3-0.1-0.4-0.2c-0.1-0.1-0.2-0.3-0.2-0.6c0-0.4,0.1-0.9,0.4-1.6l2.4-4.8c0.8-1.1,1.7-2.9,2.6-5.6c1.1-2.4,1.7-4.5,2-6.2
		c0.5-1.7,0.8-3.3,0.8-4.8c0-1.3,0.1-2.1,0.4-2.4c0.1-0.1,0.5-0.2,1-0.2c0.4,0,1,0.1,1.8,0.2c1.5,0.3,2.9,0.7,4.2,1.2
		c1.3,0.4,2.4,1,3.2,1.8c1.1,0.9,1.6,1.6,1.6,2c-0.1,0.5-0.3,1-0.4,1.4l-2,1.8c-0.8,0.9-1.3,1.7-1.6,2.2l-1.6,2.4l4.8-0.6l7-1.8
		l3.8-0.8c3.5-0.9,5.7-1.7,6.8-2.2l2.2-0.6c0.7,0,1.9,0.3,3.6,0.8c1.9,0.7,3.1,1.3,3.6,1.8c0.4,0.4,0.6,0.9,0.6,1.4
		c-0.1,0.5-0.3,0.9-0.4,1.2c-0.1,0.3-0.7,0.5-1.8,0.6l-4.4,1.2l-11.6,2.6c1.3,0.5,2.3,1.1,3,1.6c0.8,0.3,1.3,0.7,1.6,1.2v1.4
		l-1.2,2.8l-0.4,2.8l10.2-1.6c0.9-0.3,2.9-0.7,5.8-1.2c3.2-0.7,5.3-1,6.4-1c1.2,0.1,2.8,0.6,4.8,1.4s3.3,1.5,4,2.2
		c0.8,0.5,1.2,1.1,1.2,1.6c0,0.4-0.2,0.7-0.6,1c-0.4,0.3-1.1,0.5-2,0.6l-4,0.4l-25.8,1.6l-0.8,15.4l15-1.8c-0.1-2.3-0.4-4.1-0.8-5.6
		c-0.5-1.2-0.8-2.1-0.8-2.6v-0.4c0.3-0.4,0.8-0.7,1.6-1h0.4c0.5,0,1.4,0.1,2.6,0.4c2.1,0.7,3.7,1.4,4.8,2.2c1.2,0.5,1.9,1.2,2.2,2
		c0.5,0.5,0.8,1.1,0.8,1.8c0,0.3-0.4,0.9-1.2,1.8c-0.7,0.9-1.2,2.7-1.6,5.4c-0.4,2.5-1,4.3-1.8,5.2c-0.7,0.9-1.3,1.6-2,2
		c-0.7,0.4-1.3,0.6-2,0.6c-0.7,0-1.3-0.3-1.8-0.8c-0.5-0.4-0.8-1.1-0.8-2v-4.8l-22,4.8c-0.7,0-3,0.7-7,2c-4,1.3-6.7,2.5-8.2,3.6
		c-1.6,0.9-2.7,1.4-3.2,1.4c-0.1,0.1-0.3,0.2-0.4,0.2c-0.1,0-0.3-0.1-0.6-0.2c-0.7,0-1.1-0.1-1.2-0.4c-0.5-0.3-1.3-1.1-2.4-2.6
		c-1.1-1.7-1.6-3.2-1.6-4.4c0-0.5,0.1-1,0.4-1.4l2.4-1.8c0.5-0.7,0.9-1.7,1.2-3c0.3-0.7,0.4-1.4,0.4-2.2c0-0.9-0.2-1.8-0.6-2.6
		c-0.5-1.2-0.8-2.1-0.8-2.8c0-0.1,0.1-0.3,0.2-0.4c0.1-0.4,0.7-0.7,1.6-1h0.6c0.7,0,1.9,0.4,3.6,1.2c1.9,1.1,3.2,1.9,4,2.6
		c0.7,0.7,1,1.3,1,2l-0.6,1.6l-1.6,1.6c-0.4,0.5-0.6,0.9-0.6,1.2c0,0.1,0.1,0.3,0.2,0.4c0,0.4,0.3,0.7,0.8,0.8l7.8-1.2
		c2.5-0.3,3.9-0.5,4.2-0.8c0-0.3,0.1-0.7,0.4-1.2l-0.4-2.2l-0.4-11.8l-14.4,2.6l-6.2,1.2c-1.1,0-2.1-0.1-3.2-0.4l-2.6-1.4
		c-1.5-0.5-2.3-1.1-2.4-1.8c-0.4-0.4-0.6-0.7-0.6-1c0-0.1,0.1-0.3,0.2-0.4c0.1-0.3,1.1-0.5,2.8-0.8l5-0.4l11.4-1.4L265.3,459.4z
		 M267.7,570.2l-4.2-4c-2.4-2.1-4-3.5-4.8-4.2c-0.8-0.5-1.2-1-1.2-1.4v-0.2c-0.1-0.3-0.2-0.5-0.2-0.6c0-0.1,0.1-0.3,0.2-0.4
		c0.3-0.3,0.8-0.4,1.6-0.4c1.7,0.1,4.3,0.8,7.8,2c3.7,1.3,7.7,3,11.8,5c4.1,1.9,7.1,3.7,9,5.4c1.5,1.7,2.5,3.3,3,4.8
		c0.7,1.5,1.1,3.2,1.2,5.2c0,1.7-0.3,3.1-0.8,4.2c-0.5,0.8-1.1,1.4-1.6,1.8c-0.7,0.5-1.5,0.8-2.6,0.8h-0.2c-0.8,0-2.1-0.7-3.8-2.2
		c-1.9-1.3-3.5-2.7-5-4.2L267.7,570.2z"/>
</g>
<g>
	<path class="st0" d="M442.4,237.5l-1.8,33.2l-1.6,21l-0.8,12.2c-0.3,1.6-0.5,3.2-0.8,4.8c-0.3,1.5-0.8,3.2-1.6,5.2
		c-0.5,2.1-1.2,3.7-2,4.8c-0.7,0.8-1.5,1.2-2.4,1.2c-0.9,0-2.1-0.9-3.4-2.6c-1.3-1.7-2.3-3.5-2.8-5.2c-0.7-1.7-1.3-3.7-1.8-5.8
		c-0.1-1.1-0.2-2-0.2-2.8c0-1.1,0.1-2,0.2-2.8c0.3-0.7,0.7-2.1,1.4-4.2c0.9-2.1,1.9-5.2,2.8-9.2c1.3-4.1,2.3-8.1,2.8-11.8
		c0.8-3.7,1.5-8.9,2-15.6c0.4-6.7,0.7-14.1,1-22.4l0.8-32.6c0-4.4-0.3-7.9-0.8-10.4c-0.4-2.7-0.9-4.5-1.4-5.4
		c-0.5-1.1-1.2-2.2-2-3.4c-0.5-0.9-0.8-1.7-0.8-2.2v-0.6c0.3-0.7,0.8-1.1,1.6-1.4c0.4-0.1,0.9-0.2,1.6-0.2c0.4,0,1,0.1,1.8,0.2
		l2.8,0.4l3.2,1c2.8-0.7,5.5-1.3,8.2-1.8c2.5-0.7,5.7-1.5,9.4-2.4c3.6-0.9,6.3-1.9,8.2-2.8c2-0.9,3.3-1.4,3.8-1.4h0.6
		c0.9,0,2.1,0.3,3.4,0.8c1.5,0.7,3.5,1.7,6.2,3.2c2.3,1.2,3.8,2.3,4.6,3.4c0.5,1.1,0.8,1.9,0.8,2.4c0,0.5-0.4,1.5-1.2,2.8
		c-0.9,1.2-1.8,3.3-2.6,6.4c-0.9,2.9-1.6,5.9-2,8.8l-3.6,22.2c-0.5,2.4-1.1,4.6-1.6,6.6c-0.4,2-1.1,3.6-2.2,4.8
		c-0.8,1.1-1.6,1.6-2.4,1.6h-0.4c-1.1-0.1-1.7-0.7-2-1.6l-1.4-2.6l-12.2,2.6c-3.6,0.8-5.9,1.3-7,1.4L442.4,237.5z M442.4,231.1
		l6-1.6c2.3-0.3,4.7-0.9,7.4-1.8c2.8-1.1,4.6-1.7,5.4-1.8c0.7-0.1,1.2-0.2,1.6-0.2c0.4,0,0.7,0.1,0.8,0.2l2.6,0.6l2.4-17.2
		l-14.4,2.4c-3.2,0.5-5.8,0.8-7.8,0.8l-3.2,0.2L442.4,231.1z M443.6,207.3l4.4-1.2c2.4-0.5,4.9-1.2,7.4-2c2.3-0.9,4.1-1.4,5.4-1.4h1
		c1.2,0,2.5,0.2,3.8,0.6l3.4,0.8l0.8-12c0.1-1.1,0.2-2.1,0.2-3c0-0.8-0.1-1.5-0.2-2c-0.1-1.3-0.5-2.3-1.2-2.8
		c-0.3-0.3-0.9-0.4-1.8-0.4c-0.5,0-1.3,0.1-2.4,0.2l-20,3.6L443.6,207.3z M482.8,277.5c-0.5,2.1-0.9,3.9-1.2,5.2c-0.4,1.3-1.1,3-2,5
		c-0.8,2.1-2.1,4.9-4,8.2c-2,3.6-5.2,6.8-9.6,9.6l-4,2.6c-0.8,0.5-1.4,0.8-1.8,0.8c-0.3,0-0.5-0.1-0.6-0.4c-0.1-0.1-0.2-0.3-0.2-0.6
		c0-0.5,0.3-1.2,1-2l2.4-2.6c1.1-1.2,2.2-2.8,3.4-4.8c1.3-1.9,2.7-4.7,4-8.4c1.3-3.3,2.1-6.1,2.4-8.2l0.8-3
		c-1.2,0.1-2.3,0.3-3.2,0.6l-3.6,1c-1.2,0.4-2.1,0.6-2.6,0.6h-1c-0.9,0-1.8-0.1-2.6-0.4c-1.1-0.4-2.3-0.9-3.8-1.6
		c-1.7-0.9-2.9-1.8-3.6-2.6c-0.5-0.7-0.8-1.2-0.8-1.6v-0.4c0.3-0.5,0.9-0.9,2-1l3.6-0.2l8.2-0.8l8.2-0.8c0.1-1.7,0.2-3.3,0.2-4.8
		v-5.2c-0.1-2.1-0.3-3.7-0.6-4.8l-1.2-2.8c-1.1,0-2.1,0-3.2,0c-1.1-0.1-2.7-0.7-5-1.6c-2-0.8-3-1.5-3-2.2c0-0.1,0.1-0.3,0.2-0.4
		c0.5-0.8,1.3-1.2,2.4-1.2l2.6-0.2c1.9-0.1,4.4-0.3,7.6-0.6l10-1.2c7.6-0.8,12.3-1.3,14.2-1.6c1.7-0.1,3.8-0.5,6.2-1
		c2.3-0.4,4.2-0.8,5.8-1.2c1.9-0.3,3.4-0.6,4.6-1c1.1-0.4,1.7-0.6,2-0.6c0.9,0,2.1,0.2,3.6,0.6c1.3,0.4,2.5,0.8,3.6,1.2
		c0.7,0.4,1.5,0.9,2.6,1.4c0.8,0.5,1.3,1,1.6,1.4c0,0.5-0.3,1.1-0.8,1.6c-0.8,0.5-1.9,0.9-3.4,1.2l-3.6,0.4l-6.6,1l-4.4,0.6
		c1.1,0.5,2,0.9,2.8,1.2c0.8,0.4,1.6,0.9,2.4,1.6c0.8,0.7,1.2,1.3,1.2,1.8c0,0.7-0.3,1.7-0.8,3.2c-0.5,1.6-0.8,3.1-0.8,4.6v4.4
		c1.6-0.3,3-0.5,4.2-0.6c1.2-0.1,2.8-0.5,4.8-1c2-0.3,3.4-0.5,4.2-0.6c1.1,0,2.5,0.3,4.4,1c1.5,0.7,2.7,1.3,3.8,2
		c1.1,0.8,2,1.6,2.8,2.4c1.1,0.7,1.6,1.4,1.6,2.2c-0.3,0.5-0.8,1.1-1.6,1.8c-0.7,0.4-2.1,0.6-4.2,0.6h-1.6l-4.8-0.4
		c-4.8-0.1-7.5-0.2-8.2-0.2l-6.2,0.2l-1.6,29.2c-0.3,2.9-0.5,5.6-0.8,8c-0.5,2.1-0.9,4-1.2,5.6c-0.5,1.5-1.1,2.7-1.6,3.6
		c-0.7,0.8-1.3,1.2-1.8,1.2c-0.8,0-1.4-0.7-1.8-2c-0.4-1.5-0.7-3.4-1-5.8c-0.3-2.3-0.4-5.1-0.4-8.6l0.8-30.8c-1.7,0-2.9,0.1-3.6,0.2
		c-0.4,0.1-5.2,0.7-14.4,1.6L482.8,277.5z M482.4,253.1c0.9,0.7,1.8,1.4,2.6,2.2c0.8,0.7,1.2,1.3,1.2,2c-0.1,0.4-0.4,0.9-0.8,1.6
		c-0.3,0.8-0.5,1.5-0.8,2c-0.3,0.5-0.4,1.4-0.4,2.6c-0.3,1.1-0.4,2.2-0.4,3.4l-0.4,3.8c2.4-0.3,4-0.5,4.8-0.6
		c0.8-0.1,2.9-0.3,6.2-0.6c3.3-0.4,5.4-0.7,6.2-0.8l4-0.4v-3c0-0.7-0.3-2.4-0.8-5.2c-0.1-2.9-0.4-4.8-0.8-5.6l-0.8-3
		c-2.8,0.5-4.7,0.8-5.8,0.8c-0.9,0.1-2.3,0.3-4,0.4l-5,0.2L482.4,253.1z M553,223.9l-20.6,3.2c-3.2,0.5-5.1,0.8-5.6,0.8l-6.2,0.4
		l-1.2,2c-0.5,1.2-1.2,1.8-2,1.8h-0.2c-0.5,0-1.1-0.3-1.6-1c-1.1-1.1-1.9-2.3-2.4-3.8c-0.5-1.6-0.8-3-0.8-4.2c0-0.3,0.1-1,0.4-2.2
		c0.1-0.9,0.3-2.5,0.4-4.8c0.3-2.3,0.4-3.9,0.4-5l-0.8-15.4c-0.1-4-0.4-6.9-0.8-8.8c-0.5-2-1.1-3.5-1.6-4.6
		c-0.5-1.3-1.1-2.5-1.6-3.4c-0.7-1.3-1-2.3-1-2.8c0.1-0.5,0.6-0.9,1.4-1.2c0.3-0.1,0.6-0.2,1-0.2c0.5,0,1.1,0.1,1.8,0.4l4.2,1.2
		l2.8,1c3.7-0.5,6.9-1,9.4-1.4c2.4-0.4,5-1,7.8-1.8c2.7-0.7,5.1-1.3,7.4-2c2.3-0.7,4.1-1.3,5.6-1.8c1.5-0.8,2.5-1.2,3-1.2
		c0.8,0,1.9,0.3,3.2,0.8c1.3,0.5,3,1.3,5,2.4c2.1,1.2,4,2.5,5.6,3.8c1.2,1.2,1.8,2.1,1.8,2.8c0,0.7-0.1,1.4-0.4,2.2l-1.8,3.4
		c-0.5,1.3-1.1,3.6-1.6,6.8c-0.5,2.5-0.8,5.2-0.8,8v3l0.4,80c0,4.1,0.1,10.1,0.4,17.8c0,7.7-0.3,13.2-0.8,16.4
		c-0.8,3.6-2,7.1-3.6,10.4c-1.6,3.1-3.1,5.2-4.6,6.4c-1.5,0.9-2.5,1.4-3.2,1.4h-0.4c-0.8,0-1.5-0.4-2.2-1.2c-1.1-0.8-2.7-2.5-4.8-5
		c-2.3-2.5-4.9-5.1-7.8-7.8l-7-6.6c-0.5-0.5-0.8-1.1-0.8-1.6v-0.4c0.1-0.5,0.5-0.8,1.2-0.8c0.1,0,0.4,0.1,0.8,0.2l10.4,2.8
		c2.9,0.9,4.8,1.4,5.6,1.4c1.1-0.1,1.9-0.5,2.4-1c0.7-0.7,1.1-1.5,1.4-2.6c0-1.1,0.1-2.9,0.4-5.4l0.4-8.2L553,223.9z M521.8,198.5
		l4.2-0.8c2.4-0.4,5-0.9,7.8-1.4c2.7-0.5,4.7-1,6-1.4c1.2-0.3,2.2-0.4,3-0.4h1.2c1.6,0,3.5,0.4,5.8,1.2l2.8,1v-11.6
		c0-1.6-0.3-2.9-1-3.8c-0.7-0.9-1.5-1.6-2.4-2c-0.7-0.1-1.5-0.2-2.4-0.2c-1.3,0-2.9,0.1-4.8,0.4l-20.6,3L521.8,198.5z M521.4,221.3
		l6.2-1l11.4-2.4c2.9-0.5,5-1.1,6.2-1.6c1.3-0.3,2.1-0.5,2.4-0.6h1.2c0.8,0,1.5,0.1,2.2,0.2l2,0.6l-0.4-16.6c-1.1,0.5-2,0.9-2.8,1.2
		c-0.7,0.3-1.9,0.5-3.8,0.8l-11.4,1.8c-2.4,0.3-4.6,0.5-6.6,0.8c-1.3,0.3-2.4,0.4-3.2,0.4h-0.6l-2.4-0.4L521.4,221.3z"/>
</g>
<g>
	<path class="st0" d="M474.6,717.2l-15,3.2c-2.3,0.5-4.7,0.8-7.4,0.8h-2.6c-1.6,0-2.7-0.1-3.2-0.2c-1.2-0.3-2.7-0.7-4.4-1.4
		c-1.6-0.4-2.7-0.9-3.2-1.6c-0.1-0.4-0.2-0.8-0.2-1.2c0-0.3,0.1-0.5,0.2-0.8c0.3-0.4,1.1-0.7,2.4-1l4.4-0.8l35-6
		c6.5-1.3,17.6-3.7,33.2-7l8-1.6c11.1-2.5,17.6-4,19.6-4.4c2-0.5,3.5-0.8,4.6-0.8c2.3,0,5.3,0.7,9,2c3.6,1.5,6,2.7,7.2,3.6
		c0.9,0.8,1.4,1.5,1.4,2.2v0.4c0,0.4-0.1,0.8-0.4,1.2c-0.8,0.8-2.3,1.2-4.4,1.2c-2.4,0-5.1,0.2-8,0.6l-35.6,4.6l5.6,3.4
		c1.3,0.8,2.5,1.7,3.4,2.8c0.9,1.1,1.5,2,1.6,2.8v0.2c0,0.9-0.3,2.3-1,4c-0.5,0.9-1.2,2.4-2,4.4c-0.7,2-1.1,3.7-1.2,5
		c-0.4,1.1-0.8,3.5-1.2,7.4c-0.5,3.6-0.9,6.2-1,7.8c-0.1,1.6-0.3,5.3-0.4,11.2v4c0,4,0.3,7.1,0.8,9.2c0.8,4,2.2,7.1,4.2,9.4
		c2.1,2.1,4.9,3.7,8.2,4.8c3.5,1.1,7.7,1.7,12.6,2h2.8c5.1,0,9.6-0.6,13.6-1.8c4.7-1.3,8.1-3.2,10.4-5.6c2.1-2.4,3.7-5.1,4.6-8.2
		c0.9-3.1,1.6-6.3,2-9.8c0.4-3.3,0.6-5.3,0.6-5.8l0.4-2.8c0.1-0.4,0.4-0.7,0.8-1c0.3-0.1,0.5-0.2,0.8-0.2c0.3,0,0.5,0.1,0.8,0.4
		c0.4,0.5,0.7,0.9,1,1.2l1.6,8c1.1,6,2.6,10.5,4.6,13.6c1.9,3.1,2.9,4.9,3.2,5.6c0.1,0.7,0.2,1.3,0.2,1.8c-0.1,2.3-1.5,4.8-4,7.6
		c-2.9,2.7-6.6,4.9-11,6.8c-4.4,1.7-9.1,2.9-14,3.6c-4.4,0.5-8.8,0.8-13.2,0.8h-2.2c-7.2-0.1-13.3-1-18.4-2.6
		c-5.2-1.7-9.4-3.9-12.6-6.4c-3.2-2.8-5.5-5.6-6.8-8.4c-1.6-3.1-2.7-6.4-3.4-10c-0.5-3.3-0.8-6.3-0.8-9v-1.8l0.6-24.8
		c0.1-3.3,0.2-6.3,0.2-8.8v-3.4c0-2.8-0.2-5.1-0.6-6.8c-0.4-1.6-0.9-3.4-1.6-5.4L503,712l-17.4,3l4.2,3.4c1.1,0.9,1.8,1.9,2.2,3
		c0.4,0.7,0.6,1.3,0.6,2c0,0.3-0.1,0.5-0.2,0.8c-0.1,0.5-0.8,1.5-2,3c-1.3,1.3-2.7,3.6-4.2,6.8l-5,9.4l-6.4,12.8
		c-2.3,3.9-5,8.1-8.2,12.8c-3.3,4.5-6.3,8-9,10.4c-2.8,2.5-5.1,4.5-7,6c-2.1,1.3-4.7,3-7.8,5c-3.1,2-5.7,3.3-7.8,4l-5.4,2
		c-0.4,0.3-0.8,0.4-1.2,0.4c-0.4,0-0.7-0.3-1-0.8c-0.1-0.3-0.2-0.5-0.2-0.6c0-0.7,0.5-1.3,1.4-1.8l4.8-3.8c1.9-1.3,4.1-3.2,6.6-5.6
		c2.7-2.5,5.4-5.4,8.2-8.6c2.9-3.3,5.7-6.7,8.2-10.2c2.7-3.5,5-7.2,7-11.2c2-3.7,4.1-8.1,6.4-13.2c2.3-5.2,3.6-8.7,4-10.4
		c0.4-1.7,0.7-3.7,1-6c0.3-2.4,0.4-3.9,0.4-4.4L474.6,717.2z M466.6,670.2l5-0.6c2-0.1,4.5-0.4,7.6-0.8l12.4-2.4
		c5.5-1.1,9.3-1.9,11.4-2.4c2-0.5,5.5-1.5,10.4-2.8l4-1l4.2-1.2h0.2c0.9,0,2.2,0.3,3.8,0.8c1.9,0.5,3.3,1.1,4.4,1.8
		c1.3,0.8,2.3,1.5,2.8,2c0.7,0.5,1.1,1.3,1.2,2.4c0,0.8-1.7,1.7-5,2.6l-7.2,1.6c-2.3,0.5-6.8,1.5-13.6,2.8
		c-6.8,1.1-11.4,1.9-13.8,2.4c-2.4,0.4-5.3,0.8-8.6,1.2c-3.5,0.5-6.5,0.8-9,0.8c-3.1,0-5.7-0.2-7.8-0.6c-2.4-0.4-4.1-1.2-5.2-2.4
		c-0.8-0.9-1.2-1.7-1.2-2.4v-0.4c0.1-0.4,0.5-0.7,1.2-1L466.6,670.2z"/>
</g>
<path class="st1" d="M557.7,568.7H442.3c-6.6,0-12-5.4-12-12V441.3c0-6.6,5.4-12,12-12h115.5c6.6,0,12,5.4,12,12v115.5
	C569.7,563.3,564.3,568.7,557.7,568.7z"/>
<path class="st2" d="M579,591H421c-6.6,0-12-5.4-12-12V421c0-6.6,5.4-12,12-12h158c6.6,0,12,5.4,12,12v158
	C591,585.6,585.6,591,579,591z"/>
<circle class="st3" cx="500.5" cy="499.5" r="450.5"/>
<circle class="st4" cx="500" cy="499" r="415.5"/>
</svg>
